<?xml version="1.0" encoding="UTF-8" standalone="no"?>
<!DOCTYPE svg PUBLIC "-//W3C//DTD SVG 1.1//EN"
 "http://www.w3.org/Graphics/SVG/1.1/DTD/svg11.dtd">
<!-- Generated by graphviz version 2.38.0 (20140413.2041)
 -->
<!-- Title: snakemake_dag Pages: 1 -->
<svg width="275pt" height="404pt"
 viewBox="0.00 0.00 275.29 404.00" xmlns="http://www.w3.org/2000/svg" xmlns:xlink="http://www.w3.org/1999/xlink">
<g id="graph0" class="graph" transform="scale(1 1) rotate(0) translate(4 400)">
<title>snakemake_dag</title>
<polygon fill="white" stroke="none" points="-4,4 -4,-400 271.291,-400 271.291,4 -4,4"/>
<!-- 0 -->
<g id="node1" class="node"><title>0</title>
<path fill="none" stroke="#56d8d8" stroke-width="2" stroke-dasharray="5,2" d="M150.189,-36C150.189,-36 120.189,-36 120.189,-36 114.189,-36 108.189,-30 108.189,-24 108.189,-24 108.189,-12 108.189,-12 108.189,-6 114.189,-0 120.189,-0 120.189,-0 150.189,-0 150.189,-0 156.189,-0 162.189,-6 162.189,-12 162.189,-12 162.189,-24 162.189,-24 162.189,-30 156.189,-36 150.189,-36"/>
<text text-anchor="middle" x="135.189" y="-15" font-family="sans" font-size="10.00">target</text>
</g>
<!-- 1 -->
<g id="node2" class="node"><title>1</title>
<path fill="none" stroke="#d6d856" stroke-width="2" stroke-dasharray="5,2" d="M111.281,-108C111.281,-108 59.0975,-108 59.0975,-108 53.0975,-108 47.0975,-102 47.0975,-96 47.0975,-96 47.0975,-84 47.0975,-84 47.0975,-78 53.0975,-72 59.0975,-72 59.0975,-72 111.281,-72 111.281,-72 117.281,-72 123.281,-78 123.281,-84 123.281,-84 123.281,-96 123.281,-96 123.281,-102 117.281,-108 111.281,-108"/>
<text text-anchor="middle" x="85.1895" y="-87" font-family="sans" font-size="10.00">render_report</text>
</g>
<!-- 1&#45;&gt;0 -->
<g id="edge1" class="edge"><title>1&#45;&gt;0</title>
<path fill="none" stroke="grey" stroke-width="2" d="M97.549,-71.6966C103.422,-63.4741 110.559,-53.4832 117.032,-44.4207"/>
<polygon fill="grey" stroke="grey" stroke-width="2" points="120.008,-46.276 122.972,-36.1043 114.312,-42.2073 120.008,-46.276"/>
</g>
<!-- 2 -->
<g id="node3" class="node"><title>2</title>
<path fill="none" stroke="#d6d856" stroke-width="2" stroke-dasharray="5,2" d="M211.281,-108C211.281,-108 159.098,-108 159.098,-108 153.098,-108 147.098,-102 147.098,-96 147.098,-96 147.098,-84 147.098,-84 147.098,-78 153.098,-72 159.098,-72 159.098,-72 211.281,-72 211.281,-72 217.281,-72 223.281,-78 223.281,-84 223.281,-84 223.281,-96 223.281,-96 223.281,-102 217.281,-108 211.281,-108"/>
<text text-anchor="middle" x="185.189" y="-87" font-family="sans" font-size="10.00">render_report</text>
</g>
<!-- 2&#45;&gt;0 -->
<g id="edge2" class="edge"><title>2&#45;&gt;0</title>
<path fill="none" stroke="grey" stroke-width="2" d="M172.83,-71.6966C166.957,-63.4741 159.82,-53.4832 153.347,-44.4207"/>
<polygon fill="grey" stroke="grey" stroke-width="2" points="156.067,-42.2073 147.407,-36.1043 150.371,-46.276 156.067,-42.2073"/>
</g>
<!-- 3 -->
<g id="node4" class="node"><title>3</title>
<path fill="none" stroke="#d89556" stroke-width="2" stroke-dasharray="5,2" d="M111.693,-180C111.693,-180 40.6862,-180 40.6862,-180 34.6862,-180 28.6862,-174 28.6862,-168 28.6862,-168 28.6862,-156 28.6862,-156 28.6862,-150 34.6862,-144 40.6862,-144 40.6862,-144 111.693,-144 111.693,-144 117.693,-144 123.693,-150 123.693,-156 123.693,-156 123.693,-168 123.693,-168 123.693,-174 117.693,-180 111.693,-180"/>
<text text-anchor="middle" x="76.1895" y="-159" font-family="sans" font-size="10.00">get_name_counts</text>
</g>
<!-- 3&#45;&gt;1 -->
<g id="edge3" class="edge"><title>3&#45;&gt;1</title>
<path fill="none" stroke="grey" stroke-width="2" d="M78.4142,-143.697C79.406,-135.983 80.5979,-126.712 81.7036,-118.112"/>
<polygon fill="grey" stroke="grey" stroke-width="2" points="85.1864,-118.469 82.9903,-108.104 78.2436,-117.576 85.1864,-118.469"/>
</g>
<!-- 4 -->
<g id="node5" class="node"><title>4</title>
<path fill="none" stroke="#d89556" stroke-width="2" stroke-dasharray="5,2" d="M225.693,-180C225.693,-180 154.686,-180 154.686,-180 148.686,-180 142.686,-174 142.686,-168 142.686,-168 142.686,-156 142.686,-156 142.686,-150 148.686,-144 154.686,-144 154.686,-144 225.693,-144 225.693,-144 231.693,-144 237.693,-150 237.693,-156 237.693,-156 237.693,-168 237.693,-168 237.693,-174 231.693,-180 225.693,-180"/>
<text text-anchor="middle" x="190.189" y="-159" font-family="sans" font-size="10.00">get_name_counts</text>
</g>
<!-- 4&#45;&gt;2 -->
<g id="edge4" class="edge"><title>4&#45;&gt;2</title>
<path fill="none" stroke="grey" stroke-width="2" d="M188.953,-143.697C188.403,-135.983 187.74,-126.712 187.126,-118.112"/>
<polygon fill="grey" stroke="grey" stroke-width="2" points="190.615,-117.83 186.411,-108.104 183.633,-118.328 190.615,-117.83"/>
</g>
<!-- 5 -->
<g id="node6" class="node"><title>5</title>
<path fill="none" stroke="#56d89a" stroke-width="2" stroke-dasharray="5,2" d="M153.389,-252C153.389,-252 114.99,-252 114.99,-252 108.99,-252 102.99,-246 102.99,-240 102.99,-240 102.99,-228 102.99,-228 102.99,-222 108.99,-216 114.99,-216 114.99,-216 153.389,-216 153.389,-216 159.389,-216 165.389,-222 165.389,-228 165.389,-228 165.389,-240 165.389,-240 165.389,-246 159.389,-252 153.389,-252"/>
<text text-anchor="middle" x="134.189" y="-231" font-family="sans" font-size="10.00">interpolate</text>
</g>
<!-- 5&#45;&gt;3 -->
<g id="edge5" class="edge"><title>5&#45;&gt;3</title>
<path fill="none" stroke="grey" stroke-width="2" d="M119.852,-215.697C112.899,-207.305 104.419,-197.07 96.7888,-187.861"/>
<polygon fill="grey" stroke="grey" stroke-width="2" points="99.4369,-185.571 90.3616,-180.104 94.0467,-190.038 99.4369,-185.571"/>
</g>
<!-- 5&#45;&gt;4 -->
<g id="edge7" class="edge"><title>5&#45;&gt;4</title>
<path fill="none" stroke="grey" stroke-width="2" d="M148.032,-215.697C154.678,-207.389 162.768,-197.277 170.077,-188.141"/>
<polygon fill="grey" stroke="grey" stroke-width="2" points="172.992,-190.099 176.506,-180.104 167.526,-185.727 172.992,-190.099"/>
</g>
<!-- 6 -->
<g id="node7" class="node"><title>6</title>
<path fill="none" stroke="#d85656" stroke-width="2" stroke-dasharray="5,2" d="M72.5692,-252C72.5692,-252 11.8097,-252 11.8097,-252 5.80969,-252 -0.190308,-246 -0.190308,-240 -0.190308,-240 -0.190308,-228 -0.190308,-228 -0.190308,-222 5.80969,-216 11.8097,-216 11.8097,-216 72.5692,-216 72.5692,-216 78.5692,-216 84.5692,-222 84.5692,-228 84.5692,-228 84.5692,-240 84.5692,-240 84.5692,-246 78.5692,-252 72.5692,-252"/>
<text text-anchor="middle" x="42.1895" y="-236" font-family="sans" font-size="10.00">cat_files</text>
<text text-anchor="middle" x="42.1895" y="-226" font-family="sans" font-size="10.00">use_all_data: F</text>
</g>
<!-- 6&#45;&gt;3 -->
<g id="edge6" class="edge"><title>6&#45;&gt;3</title>
<path fill="none" stroke="grey" stroke-width="2" d="M50.5939,-215.697C54.4642,-207.728 59.1411,-198.1 63.4326,-189.264"/>
<polygon fill="grey" stroke="grey" stroke-width="2" points="66.6608,-190.629 67.8816,-180.104 60.3643,-187.57 66.6608,-190.629"/>
</g>
<!-- 7 -->
<g id="node8" class="node"><title>7</title>
<path fill="none" stroke="#d85656" stroke-width="2" stroke-dasharray="5,2" d="M255.393,-252C255.393,-252 194.986,-252 194.986,-252 188.986,-252 182.986,-246 182.986,-240 182.986,-240 182.986,-228 182.986,-228 182.986,-222 188.986,-216 194.986,-216 194.986,-216 255.393,-216 255.393,-216 261.393,-216 267.393,-222 267.393,-228 267.393,-228 267.393,-240 267.393,-240 267.393,-246 261.393,-252 255.393,-252"/>
<text text-anchor="middle" x="225.189" y="-236" font-family="sans" font-size="10.00">cat_files</text>
<text text-anchor="middle" x="225.189" y="-226" font-family="sans" font-size="10.00">use_all_data: T</text>
</g>
<!-- 7&#45;&gt;4 -->
<g id="edge8" class="edge"><title>7&#45;&gt;4</title>
<path fill="none" stroke="grey" stroke-width="2" d="M216.538,-215.697C212.554,-207.728 207.739,-198.1 203.322,-189.264"/>
<polygon fill="grey" stroke="grey" stroke-width="2" points="206.344,-187.483 198.742,-180.104 200.083,-190.614 206.344,-187.483"/>
</g>
<!-- 8 -->
<g id="node9" class="node"><title>8</title>
<path fill="none" stroke="#569ad8" stroke-width="2" stroke-dasharray="5,2" d="M148.189,-324C148.189,-324 118.189,-324 118.189,-324 112.189,-324 106.189,-318 106.189,-312 106.189,-312 106.189,-300 106.189,-300 106.189,-294 112.189,-288 118.189,-288 118.189,-288 148.189,-288 148.189,-288 154.189,-288 160.189,-294 160.189,-300 160.189,-300 160.189,-312 160.189,-312 160.189,-318 154.189,-324 148.189,-324"/>
<text text-anchor="middle" x="133.189" y="-303" font-family="sans" font-size="10.00">unzip</text>
</g>
<!-- 8&#45;&gt;6 -->
<g id="edge9" class="edge"><title>8&#45;&gt;6</title>
<path fill="none" stroke="grey" stroke-width="2" d="M110.695,-287.697C99.2344,-278.881 85.1311,-268.032 72.7059,-258.474"/>
<polygon fill="grey" stroke="grey" stroke-width="2" points="74.4853,-255.427 64.4251,-252.104 70.2173,-260.976 74.4853,-255.427"/>
</g>
<!-- 8&#45;&gt;7 -->
<g id="edge10" class="edge"><title>8&#45;&gt;7</title>
<path fill="none" stroke="grey" stroke-width="2" d="M155.931,-287.697C167.629,-278.796 182.05,-267.823 194.7,-258.199"/>
<polygon fill="grey" stroke="grey" stroke-width="2" points="196.871,-260.945 202.709,-252.104 192.632,-255.374 196.871,-260.945"/>
</g>
<!-- 9 -->
<g id="node10" class="node"><title>9</title>
<path fill="none" stroke="#97d856" stroke-width="2" stroke-dasharray="5,2" d="M150.502,-396C150.502,-396 115.877,-396 115.877,-396 109.877,-396 103.877,-390 103.877,-384 103.877,-384 103.877,-372 103.877,-372 103.877,-366 109.877,-360 115.877,-360 115.877,-360 150.502,-360 150.502,-360 156.502,-360 162.502,-366 162.502,-372 162.502,-372 162.502,-384 162.502,-384 162.502,-390 156.502,-396 150.502,-396"/>
<text text-anchor="middle" x="133.189" y="-375" font-family="sans" font-size="10.00">download</text>
</g>
<!-- 9&#45;&gt;8 -->
<g id="edge11" class="edge"><title>9&#45;&gt;8</title>
<path fill="none" stroke="grey" stroke-width="2" d="M133.189,-359.697C133.189,-351.983 133.189,-342.712 133.189,-334.112"/>
<polygon fill="grey" stroke="grey" stroke-width="2" points="136.69,-334.104 133.189,-324.104 129.69,-334.104 136.69,-334.104"/>
</g>
</g>
</svg>
