<?xml version="1.0" encoding="UTF-8" standalone="no"?>
<!DOCTYPE svg PUBLIC "-//W3C//DTD SVG 1.1//EN"
 "http://www.w3.org/Graphics/SVG/1.1/DTD/svg11.dtd">
<!-- Generated by graphviz version 2.38.0 (20140413.2041)
 -->
<!-- Title: snakemake_dag Pages: 1 -->
<svg width="226pt" height="332pt"
 viewBox="0.00 0.00 225.94 332.00" xmlns="http://www.w3.org/2000/svg" xmlns:xlink="http://www.w3.org/1999/xlink">
<g id="graph0" class="graph" transform="scale(1 1) rotate(0) translate(4 328)">
<title>snakemake_dag</title>
<polygon fill="white" stroke="none" points="-4,4 -4,-328 221.938,-328 221.938,4 -4,4"/>
<!-- 0 -->
<g id="node1" class="node"><title>0</title>
<path fill="none" stroke="#d85656" stroke-width="2" stroke-dasharray="5,2" d="M138.114,-36C138.114,-36 85.9301,-36 85.9301,-36 79.9301,-36 73.9301,-30 73.9301,-24 73.9301,-24 73.9301,-12 73.9301,-12 73.9301,-6 79.9301,-0 85.9301,-0 85.9301,-0 138.114,-0 138.114,-0 144.114,-0 150.114,-6 150.114,-12 150.114,-12 150.114,-24 150.114,-24 150.114,-30 144.114,-36 138.114,-36"/>
<text text-anchor="middle" x="112.022" y="-15" font-family="sans" font-size="10.00">render_report</text>
</g>
<!-- 1 -->
<g id="node2" class="node"><title>1</title>
<path fill="none" stroke="#56d8c9" stroke-width="2" stroke-dasharray="5,2" d="M147.525,-108C147.525,-108 76.5187,-108 76.5187,-108 70.5187,-108 64.5187,-102 64.5187,-96 64.5187,-96 64.5187,-84 64.5187,-84 64.5187,-78 70.5187,-72 76.5187,-72 76.5187,-72 147.525,-72 147.525,-72 153.525,-72 159.525,-78 159.525,-84 159.525,-84 159.525,-96 159.525,-96 159.525,-102 153.525,-108 147.525,-108"/>
<text text-anchor="middle" x="112.022" y="-87" font-family="sans" font-size="10.00">get_name_counts</text>
</g>
<!-- 1&#45;&gt;0 -->
<g id="edge1" class="edge"><title>1&#45;&gt;0</title>
<path fill="none" stroke="grey" stroke-width="2" d="M112.022,-71.6966C112.022,-63.9827 112.022,-54.7125 112.022,-46.1124"/>
<polygon fill="grey" stroke="grey" stroke-width="2" points="115.522,-46.1043 112.022,-36.1043 108.522,-46.1044 115.522,-46.1043"/>
</g>
<!-- 2 -->
<g id="node3" class="node"><title>2</title>
<path fill="none" stroke="#c6d856" stroke-width="2" stroke-dasharray="5,2" d="M94.0659,-180C94.0659,-180 11.978,-180 11.978,-180 5.97802,-180 -0.0219818,-174 -0.0219818,-168 -0.0219818,-168 -0.0219818,-156 -0.0219818,-156 -0.0219818,-150 5.97802,-144 11.978,-144 11.978,-144 94.0659,-144 94.0659,-144 100.066,-144 106.066,-150 106.066,-156 106.066,-156 106.066,-168 106.066,-168 106.066,-174 100.066,-180 94.0659,-180"/>
<text text-anchor="middle" x="53.022" y="-159" font-family="sans" font-size="10.00">interpolate_mortality</text>
</g>
<!-- 2&#45;&gt;1 -->
<g id="edge2" class="edge"><title>2&#45;&gt;1</title>
<path fill="none" stroke="grey" stroke-width="2" d="M67.6062,-143.697C74.6796,-135.305 83.3054,-125.07 91.0674,-115.861"/>
<polygon fill="grey" stroke="grey" stroke-width="2" points="93.8369,-118.006 97.6055,-108.104 88.4845,-113.495 93.8369,-118.006"/>
</g>
<!-- 3 -->
<g id="node4" class="node"><title>3</title>
<path fill="none" stroke="#56d87b" stroke-width="2" stroke-dasharray="5,2" d="M205.854,-180C205.854,-180 136.19,-180 136.19,-180 130.19,-180 124.19,-174 124.19,-168 124.19,-168 124.19,-156 124.19,-156 124.19,-150 130.19,-144 136.19,-144 136.19,-144 205.854,-144 205.854,-144 211.854,-144 217.854,-150 217.854,-156 217.854,-156 217.854,-168 217.854,-168 217.854,-174 211.854,-180 205.854,-180"/>
<text text-anchor="middle" x="171.022" y="-164" font-family="sans" font-size="10.00">concatenate_files</text>
<text text-anchor="middle" x="171.022" y="-154" font-family="sans" font-size="10.00">use_all_data: T</text>
</g>
<!-- 3&#45;&gt;1 -->
<g id="edge3" class="edge"><title>3&#45;&gt;1</title>
<path fill="none" stroke="grey" stroke-width="2" d="M156.438,-143.697C149.364,-135.305 140.739,-125.07 132.977,-115.861"/>
<polygon fill="grey" stroke="grey" stroke-width="2" points="135.559,-113.495 126.438,-108.104 130.207,-118.006 135.559,-113.495"/>
</g>
<!-- 4 -->
<g id="node5" class="node"><title>4</title>
<path fill="none" stroke="#d8a456" stroke-width="2" stroke-dasharray="5,2" d="M186.022,-252C186.022,-252 156.022,-252 156.022,-252 150.022,-252 144.022,-246 144.022,-240 144.022,-240 144.022,-228 144.022,-228 144.022,-222 150.022,-216 156.022,-216 156.022,-216 186.022,-216 186.022,-216 192.022,-216 198.022,-222 198.022,-228 198.022,-228 198.022,-240 198.022,-240 198.022,-246 192.022,-252 186.022,-252"/>
<text text-anchor="middle" x="171.022" y="-231" font-family="sans" font-size="10.00">unzip</text>
</g>
<!-- 4&#45;&gt;3 -->
<g id="edge4" class="edge"><title>4&#45;&gt;3</title>
<path fill="none" stroke="grey" stroke-width="2" d="M171.022,-215.697C171.022,-207.983 171.022,-198.712 171.022,-190.112"/>
<polygon fill="grey" stroke="grey" stroke-width="2" points="174.522,-190.104 171.022,-180.104 167.522,-190.104 174.522,-190.104"/>
</g>
<!-- 5 -->
<g id="node6" class="node"><title>5</title>
<path fill="none" stroke="#78d856" stroke-width="2" stroke-dasharray="5,2" d="M188.335,-324C188.335,-324 153.709,-324 153.709,-324 147.709,-324 141.709,-318 141.709,-312 141.709,-312 141.709,-300 141.709,-300 141.709,-294 147.709,-288 153.709,-288 153.709,-288 188.335,-288 188.335,-288 194.335,-288 200.335,-294 200.335,-300 200.335,-300 200.335,-312 200.335,-312 200.335,-318 194.335,-324 188.335,-324"/>
<text text-anchor="middle" x="171.022" y="-303" font-family="sans" font-size="10.00">download</text>
</g>
<!-- 5&#45;&gt;4 -->
<g id="edge5" class="edge"><title>5&#45;&gt;4</title>
<path fill="none" stroke="grey" stroke-width="2" d="M171.022,-287.697C171.022,-279.983 171.022,-270.712 171.022,-262.112"/>
<polygon fill="grey" stroke="grey" stroke-width="2" points="174.522,-262.104 171.022,-252.104 167.522,-262.104 174.522,-262.104"/>
</g>
</g>
</svg>
